<svg width="18" height="20" viewBox="0 0 18 20" fill="none" xmlns="http://www.w3.org/2000/svg">
<path d="M1.6035 15.7898H15.436C16.4118 15.7898 17.0352 15.2104 17.0352 14.3593C17.0352 13.3814 16.2673 12.5937 15.4632 11.8875C14.8036 11.308 14.6862 10.0494 14.5055 8.70037C14.2887 5.78491 13.2948 3.63907 11.1715 2.86946C10.774 1.72863 9.78014 0.877533 8.51527 0.877533C7.2594 0.877533 6.25652 1.72863 5.86801 2.86946C3.7448 3.63907 2.75095 5.78491 2.52507 8.70037C2.35341 10.0494 2.22691 11.308 1.56736 11.8875C0.763243 12.5937 0.00430298 13.3814 0.00430298 14.3593C0.00430298 15.2104 0.627718 15.7898 1.6035 15.7898ZM8.51527 19.4568C10.1235 19.4568 11.2891 18.334 11.3975 17.0212H5.63311C5.74153 18.334 6.91608 19.4568 8.51527 19.4568Z" fill="#0A0F19"/>
</svg>
