<svg width="17" height="18" viewBox="0 0 17 18" fill="none" xmlns="http://www.w3.org/2000/svg">
<path d="M13.1 2.82C12.4164 2.03962 12.0397 1.03743 12.04 0H8.94997V12.4C8.92614 13.071 8.64284 13.7066 8.15974 14.1729C7.67663 14.6393 7.03142 14.8999 6.35997 14.9C4.93997 14.9 3.75997 13.74 3.75997 12.3C3.75997 10.58 5.41997 9.29 7.12997 9.82V6.66C3.67997 6.2 0.659973 8.88 0.659973 12.3C0.659973 15.63 3.41997 18 6.34997 18C9.48997 18 12.04 15.45 12.04 12.3V6.01C13.293 6.90985 14.7973 7.39265 16.34 7.39V4.3C16.34 4.3 14.46 4.39 13.1 2.82Z" fill="#0A0F19"/>
</svg>
